<svg width="142" height="93" viewBox="0 0 142 93" fill="none" xmlns="http://www.w3.org/2000/svg">
<path d="M50.0054 31.68C50.0054 20.0401 59.4438 10.6048 71.0877 10.6048C82.7316 10.6048 92.17 20.0401 92.17 31.68C92.17 38.3078 89.1083 44.2185 84.3252 48.0836L98.0469 48.3368C101.046 43.497 102.778 37.7902 102.778 31.68C102.778 14.1831 88.5905 0 71.0877 0C53.5849 0 39.397 14.1831 39.397 31.68C39.397 46.2418 49.2254 58.5069 62.6109 62.2129L62.9493 51.1286C55.3466 47.9447 50.0054 40.4364 50.0054 31.68Z" fill="#EE5834"/>
<path d="M51.9935 32.1394C51.9935 32.1394 53.2688 24.7431 55.1829 23.2128H85.6701C85.6701 23.2128 88.9873 26.1457 88.8595 32.2671H75.0818V61.7244H65.7689V32.5225L51.9935 32.1394Z" fill="#EE5834"/>
<path d="M5.09032 74.4119H0.5V71.9449H12.6617V74.4119H8.02875V88.0146H5.09032V74.4119ZM16.7499 73.1594C16.7544 74.0354 16.1156 74.7435 15.0756 74.7435C14.1029 74.7435 13.4641 74.0377 13.4663 73.1594C13.4618 72.2654 14.123 71.573 15.1092 71.573C16.1089 71.573 16.7387 72.2564 16.7499 73.1594ZM13.6389 88.0146V76.406H16.5773V88.0146H13.6389ZM19.7444 79.8588C19.7444 78.5189 19.7018 77.412 19.648 76.406H22.2144L22.3578 78.1492H22.4251C22.9383 77.2485 24.1957 76.1439 26.1256 76.1439C28.1495 76.1439 30.2519 77.4479 30.2519 81.118V88.0124H27.3135V81.4653C27.3135 79.8005 26.7016 78.5301 25.099 78.5301C23.9313 78.5301 23.1221 79.3547 22.8151 80.2531C22.7254 80.4929 22.6806 80.8514 22.6806 81.1852V88.0146H19.7421V79.8588H19.7444ZM36.6757 73.0832V76.4083H39.4684V78.5951H36.6757V83.7171C36.6757 85.1377 37.0545 85.8592 38.1774 85.8592C38.6795 85.8592 39.056 85.8009 39.3182 85.7315L39.3765 87.9653C38.935 88.1311 38.1662 88.2656 37.2405 88.2656C36.1624 88.2656 35.2636 87.8981 34.7167 87.3088C34.0869 86.6434 33.7978 85.5746 33.7978 84.0532V78.5951H32.1414V76.4083H33.7978V73.78L36.6757 73.0832ZM56.8883 88.0146C56.4871 87.6136 56.1173 87.2125 55.6287 86.6792C54.4228 87.7054 52.9301 88.2768 51.0899 88.2768C47.5418 88.2768 45.7801 86.0631 45.7801 83.7463C45.7801 81.5908 47.0375 80.0784 48.8777 79.0947L48.8799 79.0163C48.1268 78.1246 47.5979 76.946 47.5979 75.8033C47.5979 73.7957 49.122 71.6806 52.0985 71.6806C54.3646 71.6806 56.0927 73.0809 56.0927 75.2857C56.0927 76.9415 55.1221 78.3016 52.7575 79.4869L52.7463 79.5742C53.8625 80.8491 55.0953 82.2809 55.9851 83.2376C56.6799 82.1778 57.1685 80.6676 57.4352 78.9715H60.0688C59.6385 81.4519 58.8899 83.4931 57.5585 84.9965C58.4528 85.9824 59.3359 86.9638 60.3176 88.0124H56.8883V88.0146ZM54.2278 85.0234C53.2528 84.0129 51.7287 82.3145 50.2091 80.5803C49.4492 81.0934 48.5774 81.9336 48.5774 83.2712C48.5774 84.8576 49.7473 86.1191 51.527 86.1191C52.6746 86.1191 53.6227 85.6485 54.2278 85.0234ZM50.2539 75.5232C50.2539 76.4912 50.6999 77.2821 51.4082 78.0977C52.7822 77.244 53.5711 76.5091 53.5711 75.3865C53.5711 74.5239 53.078 73.5761 51.9641 73.5761C50.8501 73.5739 50.2539 74.5105 50.2539 75.5232ZM81.3215 79.8185C81.3215 85.2004 78.0581 88.2768 73.6291 88.2768C69.0881 88.2768 66.2124 84.8083 66.2124 80.103C66.2124 75.1692 69.3324 71.6828 73.8667 71.6828C78.5556 71.6828 81.3215 75.2252 81.3215 79.8185ZM69.3145 80.0448C69.3145 83.3228 70.9709 85.9286 73.7793 85.9286C76.6146 85.9286 78.2217 83.2892 78.2217 79.9283C78.2217 76.8945 76.7177 74.031 73.786 74.031C70.879 74.031 69.3145 76.7421 69.3145 80.0448ZM83.7624 80.1389C83.7624 78.5839 83.731 77.4412 83.666 76.406H86.2077L86.3175 78.613H86.4005C86.972 76.9774 88.3258 76.1439 89.5787 76.1439C89.8656 76.1439 90.0337 76.1551 90.2668 76.2066V78.9715C90.0158 78.9177 89.7602 78.8886 89.4061 78.8886C88.0075 78.8886 87.037 79.7781 86.7747 81.1091C86.7254 81.369 86.7008 81.6782 86.7008 81.9941V88.0146H83.7624V80.1389ZM98.6652 88.0146L98.4635 86.7218H98.3918C97.688 87.6382 96.4732 88.2768 94.9692 88.2768C92.6135 88.2768 91.3091 86.5941 91.3091 84.824C91.3091 81.8955 93.9202 80.4122 98.1968 80.4302V80.2375C98.1968 79.4757 97.8942 78.2052 95.8388 78.2142C94.7025 78.2142 93.5078 78.5816 92.7166 79.0791L92.1339 77.1745C93.0102 76.6413 94.5142 76.1439 96.3432 76.1439C100.068 76.1439 101.131 78.492 101.131 81.0374V85.2161C101.131 86.2714 101.185 87.2954 101.312 88.0124H98.6652V88.0146ZM98.2775 82.3302C96.2064 82.3033 94.225 82.7402 94.225 84.5081C94.225 85.6441 94.9714 86.1796 95.8994 86.1796C97.0716 86.1796 97.9144 85.4222 98.1968 84.573C98.2595 84.3691 98.2797 84.1384 98.2797 83.9345V82.3302H98.2775ZM104.251 79.8588C104.251 78.5189 104.208 77.412 104.154 76.406H106.721L106.866 78.1492H106.934C107.447 77.2485 108.704 76.1439 110.634 76.1439C112.658 76.1439 114.76 77.4479 114.76 81.118V88.0124H111.822V81.4653C111.822 79.8005 111.21 78.5301 109.608 78.5301C108.44 78.5301 107.631 79.3547 107.324 80.2531C107.234 80.4929 107.189 80.8514 107.189 81.1852V88.0146H104.251V79.8588ZM128.505 76.4083C128.449 77.1902 128.406 78.1537 128.406 79.7423V86.3274C128.406 88.7607 127.913 90.4905 126.689 91.5884C125.476 92.6662 123.795 93 122.195 93C120.72 93 119.149 92.6796 118.154 92.0813L118.786 89.843C119.535 90.2911 120.774 90.7392 122.173 90.7392C124.08 90.7392 125.51 89.7309 125.51 87.2304V86.2401H125.463C124.802 87.2528 123.621 87.9429 122.081 87.9429C119.203 87.9429 117.152 85.5544 117.152 82.2809C117.152 78.4517 119.631 76.1483 122.406 76.1483C124.19 76.1483 125.228 76.9953 125.784 77.9543H125.831L125.936 76.4105H128.505V76.4083ZM125.472 81.0642C125.472 80.7819 125.447 80.5086 125.38 80.2733C125.069 79.1956 124.23 78.3867 122.982 78.3867C121.355 78.3867 120.131 79.8117 120.131 82.1801C120.131 84.1518 121.128 85.7539 122.971 85.7539C124.073 85.7539 125.01 85.0436 125.344 83.9748C125.438 83.6701 125.476 83.2757 125.476 82.9441V81.0642H125.472ZM133.628 83.0225C133.707 85.1265 135.334 86.0451 137.215 86.0451C138.566 86.0451 139.532 85.8345 140.42 85.5074L140.854 87.5284C139.859 87.9496 138.481 88.2656 136.795 88.2656C133.025 88.2656 130.818 85.9376 130.818 82.3795C130.818 79.1754 132.761 76.1439 136.497 76.1439C140.272 76.1439 141.5 79.2471 141.5 81.7902C141.5 82.3369 141.453 82.7716 141.397 83.0225H133.628ZM138.736 80.9769C138.75 79.9014 138.281 78.1492 136.316 78.1492C134.509 78.1492 133.756 79.7893 133.626 80.9769H138.736Z" fill="#EE5834"/>
</svg>
